<svg version="1.1" xmlns="http://www.w3.org/2000/svg" xmlns:xlink="http://www.w3.org/1999/xlink" width="98" height="83.46411" viewBox="0,0,98,83.46411"><g transform="translate(-191,-138.26795)"><g data-paper-data="{&quot;isPaintingLayer&quot;:true}" fill-rule="nonzero" stroke-linejoin="miter" stroke-miterlimit="10" stroke-dasharray="" stroke-dashoffset="0" style="mix-blend-mode: normal"><path d="M269.14091,192.65587c0,0 0.75772,9.02459 -2.71977,14.14279c-0.1443,0.21239 -0.32978,0.40312 -0.5118,0.60298c-2.71607,2.98208 -7.8581,5.6621 -10.09529,5.78847c-17.16779,0.96971 -44.06025,0.13599 -44.06025,0.13599c0,0 -6.61867,-2.93916 -9.3832,-7.07139c-2.76453,-4.13225 -3.39971,-11.55902 -3.39971,-11.55902z" fill="#e69600" stroke="#e69600" stroke-width="2" stroke-linecap="round"/><path d="M203.45508,147.99843c1.94383,-2.21383 7.87309,-5.22691 7.87309,-5.22691l45.02991,0.09491c0,0 5.72921,1.9281 7.94718,4.02284c2.01156,1.89981 4.66597,7.20206 4.66597,7.20206l0.13599,42.25059c0,0 -3.08681,4.07997 -4.9618,5.69534c-1.95796,1.68685 -6.54783,4.22065 -6.54783,4.22065h-47.10095c0,0 -4.74155,-3.42059 -6.65033,-5.41747c-1.92758,-2.01654 -4.85929,-6.62337 -4.85929,-6.62337v-36.65375c0,0 2.20956,-6.99273 4.46805,-9.56489z" fill="#ffa400" stroke="#ffa400" stroke-width="2" stroke-linecap="round"/><g fill="#000000" stroke="#000000" stroke-width="0.5" stroke-linecap="butt"><path d="M252.02495,168.71517c0,1.84766 -1.50307,3.35084 -3.35062,3.35084c-1.84766,0 -3.35072,-1.50317 -3.35072,-3.35072c0,-1.84755 1.50319,-3.35072 3.35072,-3.35072c1.84755,0 3.35062,1.50307 3.35062,3.3506zM251.04564,168.71517c0,-1.30755 -1.06375,-2.3713 -2.3713,-2.3713c-1.30766,0 -2.37141,1.06376 -2.37141,2.37141c0,1.30766 1.06386,2.37141 2.37141,2.37141c1.30755,0 2.3713,-1.06387 2.3713,-2.37154z"/><path d="M243.16349,168.71517c0,1.84766 -1.50307,3.35084 -3.3506,3.35084c-1.84766,0 -3.35072,-1.50317 -3.35072,-3.35072c0,-1.84755 1.50307,-3.35072 3.35072,-3.35072c1.84755,0 3.35072,1.50307 3.3506,3.3506zM242.18418,168.71517c0,-1.30755 -1.06375,-2.3713 -2.3713,-2.3713c-1.30766,0 -2.37141,1.06376 -2.37141,2.37141c0,1.30766 1.06376,2.37141 2.37141,2.37141c1.30766,0 2.37141,-1.06387 2.3713,-2.37154z"/><path d="M234.30216,168.71517c0,1.84766 -1.50307,3.35084 -3.3506,3.35084c-1.84766,0 -3.35072,-1.50317 -3.35072,-3.35072c0,-1.84755 1.50319,-3.35072 3.35072,-3.35072c1.84755,0 3.3506,1.50307 3.3506,3.3506zM233.32285,168.71517c0,-1.30755 -1.06376,-2.3713 -2.37131,-2.3713c-1.30766,0 -2.37141,1.06376 -2.37141,2.37141c0,1.30766 1.06386,2.37141 2.37141,2.37141c1.30755,0 2.37131,-1.06387 2.37131,-2.37154z"/><path d="M261.50912,156.37833v24.32435c0,1.75537 -1.23727,3.22653 -2.88527,3.58933v2.04583c0,2.02682 -1.64892,3.67586 -3.67574,3.67586h-2.94137v11.58069c0,1.42817 -0.60406,1.89156 -0.9641,2.04077c-0.11924,0.04943 -0.28169,0.09332 -0.48251,0.09332c-0.40543,0 -0.96674,-0.17915 -1.64224,-0.85464l-12.86013,-12.86013h-12.45412l-7.22498,7.22498c-0.5597,0.55982 -1.12735,0.85557 -1.64155,0.85557c-0.6998,0 -1.44741,-0.56085 -1.44741,-2.13489v-11.58081h-2.94137c-2.02694,0 -3.67586,-1.64892 -3.67586,-3.67586v-24.32435c0,-2.02694 1.64892,-3.67586 3.67586,-3.67586h47.48495c2.02694,0 3.67597,1.64892 3.67586,3.67586zM257.61702,186.72092h-21.78715c-0.2704,0 -0.48966,-0.21914 -0.48966,-0.48966c0,-0.27052 0.21926,-0.48965 0.48966,-0.48965h21.81479v-1.36308h-28.40587l-4.65584,4.65586h11.67759c0.12984,0 0.25439,0.05161 0.34621,0.14344l13.00358,13.00357c0.51511,0.51511 0.89151,0.618 1.05765,0.54899c0.16591,-0.06855 0.35958,-0.40739 0.35958,-1.13589v-12.07047c0,-0.27052 0.21925,-0.48965 0.48965,-0.48965h3.43103c1.35674,0 2.48213,-1.00742 2.66878,-2.31347zM260.52993,180.70268v-21.94003h-8.03261c-0.2704,0 -0.48966,-0.21914 -0.48966,-0.48966c0,-0.27052 0.21926,-0.48965 0.48966,-0.48965h8.03261v-1.40502c0,-1.48682 -1.20974,-2.69655 -2.69666,-2.69655h-47.48495c-1.48682,0 -2.69656,1.20973 -2.69656,2.69655v2.71083h20.72777c0.2704,0 0.48965,0.21914 0.48965,0.48966c0,0.27052 -0.21925,0.48965 -0.48965,0.48965h-20.72777v2.40023h10.35865c0.2704,0 0.48965,0.21913 0.48965,0.48965c0,0.27052 -0.21925,0.48965 -0.48965,0.48965h-10.35865v17.25468c0,1.48682 1.20974,2.69655 2.69656,2.69655h3.43102c0.2704,0 0.48966,0.21914 0.48966,0.48966v12.07035c0,0.53309 0.12258,1.15558 0.4681,1.15558c0.11441,0 0.43584,-0.05529 0.94912,-0.56858l7.36808,-7.36806c0.00022,-0.00022 0.00046,-0.00046 0.00057,-0.00069l5.63481,-5.63481c0.09182,-0.09182 0.21637,-0.14345 0.34621,-0.14345h28.79736c1.48693,0 2.69666,-1.20973 2.69666,-2.69655z"/></g><path d="M191,221.73206v-83.46411h98v83.46411z" fill="none" stroke="none" stroke-width="0" stroke-linecap="butt"/><path d="M249.8053,204.03272c0,-7.20287 6.26055,-13.04197 13.98333,-13.04197c7.72278,0 13.98334,5.83909 13.98334,13.04197c0,7.20287 -6.26055,13.04197 -13.98334,13.04197c-7.72278,0 -13.98333,-5.83909 -13.98333,-13.04197z" fill="#ff0000" stroke="none" stroke-width="NaN" stroke-linecap="butt"/></g></g></svg>