<svg version="1.1" xmlns="http://www.w3.org/2000/svg" xmlns:xlink="http://www.w3.org/1999/xlink" width="83.6" height="71.2" viewBox="0,0,83.6,71.2"><g transform="translate(-203.2409,-145.9223)"><g data-paper-data="{&quot;isPaintingLayer&quot;:true}" fill-rule="nonzero" stroke-linejoin="miter" stroke-miterlimit="10" stroke-dasharray="" stroke-dashoffset="0" style="mix-blend-mode: normal"><g stroke-width="2" stroke-linecap="round"><path d="M269.89989,192.31854c0,0 0.64638,7.69853 -2.32013,12.06467c-0.1231,0.18118 -0.28132,0.34389 -0.4366,0.51438c-2.31697,2.5439 -6.70344,4.83012 -8.6119,4.93792c-14.64518,0.82722 -37.58609,0.11601 -37.58609,0.11601c0,0 -5.64613,-2.50728 -8.00444,-6.03233c-2.35831,-3.52506 -2.90016,-9.86055 -2.90016,-9.86055z" fill="#e69600" stroke="#e69600"/><path d="M213.86586,154.22301c1.65821,-1.88853 6.71623,-4.45887 6.71623,-4.45887l38.41327,0.08096c0,0 4.88737,1.64479 6.77943,3.43173c1.71598,1.62065 3.98036,6.1438 3.98036,6.1438l0.11601,36.04234c0,0 -2.63324,3.48046 -4.23272,4.85847c-1.67026,1.43899 -5.5857,3.60047 -5.5857,3.60047h-40.17999c0,0 -4.04483,-2.91797 -5.67314,-4.62143c-1.64434,-1.72023 -4.14527,-5.65014 -4.14527,-5.65014v-31.26789c0,0 1.88489,-5.96523 3.81152,-8.15944z" fill="#ffa400" stroke="#ffa400"/></g><g fill="#000000" stroke="#000000" stroke-width="0.5" stroke-linecap="butt"><path d="M255.29893,171.89566c0,1.57617 -1.28221,2.85847 -2.85828,2.85847c-1.57617,0 -2.85837,-1.2823 -2.85837,-2.85837c0,-1.57607 1.28231,-2.85837 2.85837,-2.85837c1.57607,0 2.85828,1.28221 2.85828,2.85827zM254.46352,171.89566c0,-1.11542 -0.90744,-2.02286 -2.02286,-2.02286c-1.11551,0 -2.02296,0.90745 -2.02296,2.02296c0,1.11551 0.90754,2.02296 2.02296,2.02296c1.11542,0 2.02286,-0.90755 2.02286,-2.02307z"/><path d="M247.73956,171.89566c0,1.57617 -1.28221,2.85847 -2.85827,2.85847c-1.57617,0 -2.85837,-1.2823 -2.85837,-2.85837c0,-1.57607 1.28221,-2.85837 2.85837,-2.85837c1.57607,0 2.85837,1.28221 2.85827,2.85827zM246.90415,171.89566c0,-1.11542 -0.90744,-2.02286 -2.02286,-2.02286c-1.11551,0 -2.02296,0.90745 -2.02296,2.02296c0,1.11551 0.90745,2.02296 2.02296,2.02296c1.11551,0 2.02296,-0.90755 2.02286,-2.02307z"/><path d="M240.1803,171.89566c0,1.57617 -1.28221,2.85847 -2.85827,2.85847c-1.57617,0 -2.85837,-1.2823 -2.85837,-2.85837c0,-1.57607 1.28231,-2.85837 2.85837,-2.85837c1.57607,0 2.85827,1.28221 2.85827,2.85827zM239.34489,171.89566c0,-1.11542 -0.90745,-2.02286 -2.02287,-2.02286c-1.11551,0 -2.02296,0.90745 -2.02296,2.02296c0,1.11551 0.90754,2.02296 2.02296,2.02296c1.11542,0 2.02287,-0.90755 2.02287,-2.02307z"/><path d="M263.38951,161.37158v20.75016c0,1.49744 -1.05547,2.75243 -2.46131,3.06192v1.74522c0,1.729 -1.40663,3.13573 -3.13563,3.13573h-2.50917v9.87904c0,1.21832 -0.5153,1.61362 -0.82244,1.7409c-0.10172,0.04217 -0.2403,0.07961 -0.41161,0.07961c-0.34586,0 -0.82469,-0.15283 -1.40093,-0.72906l-10.97048,-10.97048h-10.62413l-6.16335,6.16335c-0.47746,0.47756 -0.9617,0.72985 -1.40034,0.72985c-0.59697,0 -1.23473,-0.47844 -1.23473,-1.82119v-9.87914h-2.50917c-1.7291,0 -3.13573,-1.40663 -3.13573,-3.13573v-20.75016c0,-1.7291 1.40663,-3.13573 3.13573,-3.13573h40.50757c1.7291,0 3.13583,1.40663 3.13573,3.13573zM260.06931,187.25567h-18.58577c-0.23067,0 -0.41771,-0.18694 -0.41771,-0.41771c0,-0.23077 0.18704,-0.4177 0.41771,-0.4177h18.60935v-1.16279h-24.23195l-3.97172,3.97173h9.9617c0.11076,0 0.21701,0.04403 0.29534,0.12236l11.09285,11.09284c0.43942,0.43942 0.76051,0.52719 0.90224,0.46832c0.14153,-0.05848 0.30674,-0.34753 0.30674,-0.96898v-10.29685c0,-0.23077 0.18703,-0.4177 0.4177,-0.4177h2.92688c1.15738,0 2.11741,-0.85939 2.27663,-1.97353zM262.5542,182.12174v-18.71619h-6.85231c-0.23067,0 -0.41771,-0.18694 -0.41771,-0.41771c0,-0.23077 0.18704,-0.4177 0.41771,-0.4177h6.85231v-1.19857c0,-1.26835 -1.03198,-2.30032 -2.30042,-2.30032h-40.50757c-1.26835,0 -2.30033,1.03197 -2.30033,2.30032v2.3125h17.68206c0.23067,0 0.4177,0.18694 0.4177,0.41771c0,0.23077 -0.18703,0.4177 -0.4177,0.4177h-17.68206v2.04754h8.83656c0.23067,0 0.4177,0.18693 0.4177,0.4177c0,0.23077 -0.18703,0.4177 -0.4177,0.4177h-8.83656v14.7193c0,1.26835 1.03198,2.30032 2.30033,2.30032h2.92687c0.23067,0 0.41771,0.18694 0.41771,0.41771v10.29675c0,0.45476 0.10457,0.98578 0.39932,0.98578c0.0976,0 0.3718,-0.04717 0.80966,-0.48503l6.28542,-6.28541c0.00019,-0.00019 0.00039,-0.00039 0.00049,-0.00059l4.80684,-4.80684c0.07833,-0.07833 0.18458,-0.12237 0.29534,-0.12237h24.56591c1.26844,0 2.30042,-1.03197 2.30042,-2.30032z"/></g><path d="M203.24091,217.12231v-71.2h83.6v71.2z" fill="none" stroke="none" stroke-width="0" stroke-linecap="butt"/></g></g></svg>