<svg version="1.1" xmlns="http://www.w3.org/2000/svg" xmlns:xlink="http://www.w3.org/1999/xlink" width="36.41311" height="36.41312" viewBox="0,0,36.41311,36.41312"><g transform="translate(-221.79345,-161.79344)"><g data-paper-data="{&quot;isPaintingLayer&quot;:true}" fill-rule="nonzero" stroke-linejoin="miter" stroke-miterlimit="10" stroke-dasharray="" stroke-dashoffset="0" style="mix-blend-mode: normal"><path d="M221.79346,180.00001c0,-10.0552 8.15135,-18.20656 18.20656,-18.20656c10.0552,0 18.20655,8.15135 18.20655,18.20656c0,10.0552 -8.15135,18.20656 -18.20655,18.20656c-10.0552,0 -18.20656,-8.15135 -18.20656,-18.20656z" fill="#ff0000" stroke="none" stroke-width="NaN" stroke-linecap="butt"/><path d="M240.46737,166.35784c3.06649,0.00625 5.85374,3.85937 5.85374,3.85937l-6.2995,15.60529l-6.23161,-15.41443c0,0 4.05189,-4.05558 6.67737,-4.05023z" fill="none" stroke="#ffffff" stroke-width="1.5" stroke-linecap="round"/><path d="M236.46823,191.89247c0,-2.01929 1.63696,-3.65625 3.65625,-3.65625c2.01929,0 3.65625,1.63696 3.65625,3.65625c0,2.01929 -1.63696,3.65625 -3.65625,3.65625c-2.01929,0 -3.65625,-1.63696 -3.65625,-3.65625z" fill="none" stroke="#ffffff" stroke-width="1.5" stroke-linecap="butt"/></g></g></svg>