<svg version="1.1" xmlns="http://www.w3.org/2000/svg" xmlns:xlink="http://www.w3.org/1999/xlink" width="484.30076" height="249.24925" viewBox="0,0,484.30076,249.24925"><g transform="translate(0.99099,-58.82883)"><g data-paper-data="{&quot;isPaintingLayer&quot;:true}" fill-rule="nonzero" stroke-linecap="butt" stroke-linejoin="miter" stroke-miterlimit="10" stroke-dasharray="" stroke-dashoffset="0" style="mix-blend-mode: normal"><text transform="translate(136.71307,196.94871) scale(1.54103,1.54103)" font-size="40" xml:space="preserve" fill="#ff8200" fill-rule="nonzero" stroke="#ff8200" stroke-width="1.5" stroke-linecap="butt" stroke-linejoin="miter" stroke-miterlimit="10" stroke-dasharray="" stroke-dashoffset="0" font-family="Sans Serif" font-weight="normal" text-anchor="start" style="mix-blend-mode: normal"><tspan x="0" dy="0">cratchchat</tspan></text><g fill="#ff8200" stroke="none"><path d="M32.06077,208.65837v-68.43179h100.77825v68.43179z" stroke-width="NaN"/><path d="M46.6738,225.76631v-102.64769h71.55218v102.64769z" stroke-width="NaN"/><path d="M101.99285,138.68092c0,-8.59548 6.96801,-15.56348 15.56348,-15.56348c8.59548,0 15.56348,6.96801 15.56348,15.56348c0,8.59548 -6.96801,15.56348 -15.56348,15.56348c-8.59548,0 -15.56348,-6.96801 -15.56348,-15.56348z" stroke-width="0"/><path d="M101.99285,210.67688c0,-8.59548 6.96801,-15.56348 15.56348,-15.56348c8.59548,0 15.56348,6.96801 15.56348,15.56348c0,8.59546 -6.96801,15.56348 -15.56348,15.56348c-8.59548,0 -15.56348,-6.96801 -15.56348,-15.56348z" stroke-width="0"/><path d="M32.57916,138.68092c0,-8.59548 6.96801,-15.56348 15.56348,-15.56348c8.59546,0 15.56348,6.96801 15.56348,15.56348c0,8.59546 -6.96801,15.56348 -15.56348,15.56348c-8.59546,0 -15.56348,-6.96801 -15.56348,-15.56348z" stroke-width="0"/><path d="M32.31749,236.88256v-39.91854h28.51325v28.51325h-13.9002z" stroke-width="0"/></g><g stroke="none" stroke-width="1"><path d="M107.23644,191.83286c-2.77382,7.68597 -10.31378,12.35764 -22.40522,13.88625c-0.54961,0.06871 -1.09064,0.11164 -1.63166,0.12881c-0.70418,1.03052 -1.62306,1.92363 -2.70511,2.61923c-2.83392,1.81199 -5.48752,2.69653 -8.10675,2.69653c-5.38446,0 -11.18114,-4.01903 -11.18114,-12.84715c0,-0.60113 0.02576,-1.38261 0.08588,-2.46466c0.02576,-0.46373 0.05152,-0.82441 0.06012,-1.09064c-0.14598,-0.66984 -0.22328,-1.34826 -0.22328,-2.03527v-4.15643c0,-0.67842 0.06871,-1.35685 0.20611,-2.03527c0.00859,-0.57537 0.03434,-1.21945 0.0773,-1.92363c-0.20611,-0.75572 -0.36068,-1.63166 -0.36068,-2.61064c0,-0.44656 0.03434,-0.89312 0.09447,-1.33109c0.32633,-2.3015 1.34826,-4.61157 3.07437,-6.45793c-0.59254,-1.65742 -0.9017,-3.40929 -0.9017,-5.20412v-4.37971c0,-1.77765 0.35209,-3.99327 2.07822,-9.50655c0.72136,-2.37019 0.95324,-3.10874 1.27097,-3.79575c1.69177,-3.79575 4.24231,-5.69362 6.09723,-6.62967c3.03144,-1.51142 6.28617,-2.28431 9.6697,-2.28431c1.56296,0 3.0572,0.16316 4.48276,0.47232c0.63549,-0.42939 1.31392,-0.79006 2.03527,-1.09064c0.91888,-0.39504 1.89787,-0.66984 2.97993,-0.8416c2.70511,-0.46373 5.56481,0.11164 8.05523,1.62306c2.61923,1.5973 5.62492,4.91215 5.25565,11.73075c-0.06012,1.20228 -0.16316,2.80816 -0.31775,4.90356c-0.00859,0.05152 -0.00859,0.10305 -0.01717,0.15457c-0.1374,1.52003 -0.33492,3.78716 -0.60113,6.78426c0.06871,1.15933 0.04293,2.45607 -0.06012,3.98468c-0.04293,0.58396 -0.1374,1.16791 -0.29199,1.7347c-0.03434,0.12881 -0.06871,0.24904 -0.10305,0.36068c1.15933,1.48566 1.94939,2.97134 2.49042,4.25948c0.50668,1.02193 0.93605,2.19845 1.31392,3.63257c0.14598,0.54103 0.24045,1.09064 0.2834,1.64884c0.38644,4.81768 0.18893,7.66019 -0.70418,10.06475z" fill="#ffffff"/><path d="M98.52512,182.52726c0.25162,3.12333 0.2001,5.13627 -0.15114,6.04314c-1.46162,4.1298 -6.37205,6.72243 -14.72957,7.78041c-2.82104,0.35296 -5.64037,-0.98158 -8.46142,-4.00357c0,0.45343 0.10047,1.81286 0.30315,4.08c0.15114,1.66172 0.12539,3.02114 -0.07556,4.07829c-1.2598,0.80552 -2.26629,1.20915 -3.02199,1.20915c-1.15933,0 -1.73728,-1.13272 -1.73728,-3.39986c0,-0.40276 0.02491,-1.04426 0.07556,-1.92535c0.0498,-0.88024 0.07556,-1.49769 0.07556,-1.85065c0,-0.85619 -0.07556,-1.4599 -0.22671,-1.81286v-4.15471c0,-0.10047 0.02491,-0.21383 0.07556,-0.34008c0.0498,-0.12539 0.10047,-0.23874 0.15114,-0.34008c-0.05067,-0.70418 -0.02576,-1.7871 0.07556,-3.24785c0.10047,-0.90686 0.10047,-1.48481 0,-1.73728c-0.25248,-0.50237 -0.377,-0.80466 -0.377,-0.906c0.2001,-1.4101 1.23404,-2.11515 3.09671,-2.11515c1.20828,0 1.93825,0.42852 2.19071,1.28385c0,0.80552 0.10047,1.98976 0.30229,3.55014c0.30315,1.81286 1.25895,3.62657 2.87085,5.43856c1.76219,2.06532 3.4488,3.02199 5.06158,2.87085c1.81286,-0.2001 3.62572,-0.62862 5.43856,-1.28385c2.51791,-0.90686 4.02848,-1.964 4.53256,-3.17229c0.35124,-0.90686 0.52815,-1.86266 0.52815,-2.87085c0,-3.07095 -1.13272,-5.363 -3.39899,-6.87357c-1.00818,-0.65438 -2.87085,-1.18337 -5.59057,-1.587c-1.56124,-0.2001 -2.51876,-0.30229 -2.87,-0.30229c-2.41744,0.05067 -4.6717,-0.72996 -6.76106,-2.34185c-2.09024,-1.61105 -3.1345,-3.47542 -3.1345,-5.59057v-4.38057c0,-0.9558 0.55391,-3.19718 1.66256,-6.72243c0.50237,-1.66256 0.77976,-2.5428 0.83128,-2.64414c0.45257,-1.05714 1.03138,-1.76219 1.73643,-2.11515c1.71152,-0.85533 3.52438,-1.28385 5.43856,-1.28385c3.72619,0 6.47081,1.51057 8.23385,4.53172c0.15114,0.15114 0.40276,0.37785 0.75572,0.68014c0.0498,-0.70418 0.15114,-1.7871 0.30229,-3.24785c-0.05067,-0.65438 -0.10134,-1.28385 -0.15114,-1.88842c0,-0.70418 0.35124,-1.18253 1.05714,-1.43499c0.20095,-0.10047 0.47832,-0.17606 0.83128,-0.22671c0.50324,-0.10047 1.04513,0.02576 1.62479,0.377c0.57795,0.35296 0.81754,1.41095 0.71706,3.17229c-0.05067,1.10781 -0.15114,2.66905 -0.30229,4.68286c-0.15114,1.66256 -0.377,4.20538 -0.68014,7.63014c0.10047,0.80552 0.10047,1.91418 0,3.32343c-0.25248,0.95667 -1.00818,1.43499 -2.26629,1.43499c-0.65525,0 -1.28385,-0.17606 -1.88842,-0.52815c-0.30229,-0.9558 -0.45257,-1.36029 -0.45257,-1.20915c0.09961,-1.35943 -0.1769,-3.17229 -0.83128,-5.43856c-0.55477,-1.15761 -1.32164,-2.80645 -2.30406,-4.94736c-0.98243,-2.14004 -2.27917,-3.28651 -3.89022,-3.43763c-2.01467,-0.15114 -3.32343,0.52899 -3.92799,2.03957c-0.20095,0.65525 -0.47919,1.61276 -0.83043,2.87085c-0.60458,1.86353 -0.98243,3.65148 -1.13357,5.363c-0.05067,0.55477 -0.10134,0.78148 -0.15114,0.68014c0.15114,1.00818 0.3272,2.01467 0.52899,3.02199c0.25162,1.25895 0.86907,2.21647 1.85065,2.87c0.98243,0.65525 2.85712,1.05714 5.6275,1.20828c6.79799,0.40447 11.00251,2.77124 12.61442,7.10114c0.25075,0.40363 0.50237,1.0829 0.75485,2.03872z" fill="#ff8200"/></g><path d="M-0.99099,308.07808v-249.24925h484.30076v249.24925z" fill="none" stroke="none" stroke-width="0"/></g></g></svg>